#!OML:ASF E:\Style4\Style4.ASF
:FULLY-SPECIFIED
:DEGREES
566
root 0.00628438 16.655 -2.0254 10.8732 -0.931223 2.68996
lowerback 11.4597 1.66822 -2.65686
upperback 1.54432 1.84342 -0.670905
thorax -4.86908 0.94971 0.510442
lowerneck 4.27321 -3.83496 -6.57796
upperneck 0.808149 -5.38759 4.97216
head -0.148538 -2.74493 2.78557
rclavicle 2.17172e-014 -2.08724e-014
rhumerus -27.9473 -11.1721 -46.0236
rradius 67.8538
rwrist -56.9433
rhand -16.52 25.3319
rfingers 7.12502
rthumb 9.69846 -4.42482
lclavicle 2.17172e-014 -2.08724e-014
lhumerus -29.5189 11.2622 43.8416
lradius 68.1312
lwrist 56.4075
lhand -2.74588 21.4378
lfingers 7.12502
lthumb 22.9578 50.0909
rfemur -39.4741 -0.359897 15.1676
rtibia 58.4748
rfoot -27.0119 -15.2017
rtoes -13.2698
lfemur -37.9201 -1.12805 -22.0855
ltibia 56.6058
lfoot -27.9599 7.77865
ltoes -16.1929
567
root 0.00555875 16.6538 -2.02553 10.8633 -0.909862 2.69441
lowerback 11.448 1.66805 -2.65336
upperback 1.53008 1.84374 -0.672513
thorax -4.87738 0.949991 0.506801
lowerneck 4.3746 -3.85163 -6.60995
upperneck 0.748224 -5.41594 4.99422
head -0.181867 -2.76006 2.80292
rclavicle -1.30204e-014 2.98177e-015
rhumerus -27.8404 -11.0265 -46.0336
rradius 67.8769
rwrist -56.9865
rhand -16.616 25.2641
rfingers 7.12502
rthumb 9.60582 -4.49686
lclavicle -1.30204e-014 2.98177e-015
lhumerus -29.4521 11.1781 43.9117
lradius 68.2815
lwrist 56.413
lhand -2.76457 21.3914
lfingers 7.12502
lthumb 22.9399 50.0466
rfemur -39.4538 -0.372611 15.169
rtibia 58.4734
rfoot -27.0303 -15.2044
rtoes -13.554
lfemur -37.9106 -1.09618 -22.094
ltibia 56.6076
lfoot -27.9285 7.78165
ltoes -16.2954
568
root 0.00394787 16.6526 -2.02687 10.8401 -0.86994 2.70685
lowerback 11.4642 1.66662 -2.66729
upperback 1.52401 1.83935 -0.674424
thorax -4.89297 0.948244 0.512753
lowerneck 4.32272 -3.86289 -6.57771
upperneck 0.857584 -5.42857 5.00612
head -0.13789 -2.76649 2.79763
rclavicle 1.18774e-014 -1.49089e-014
rhumerus -27.7546 -10.8912 -46.0391
rradius 67.8948
rwrist -56.9981
rhand -16.7637 25.3388
rfingers 7.12502
rthumb 9.46338 -4.42874
lclavicle 1.18774e-014 -1.49089e-014
lhumerus -29.3791 11.1117 43.9648
lradius 68.3998
lwrist 56.4055
lhand -2.65692 21.4307
lfingers 7.12502
lthumb 23.0432 50.0731
rfemur -39.4241 -0.376161 15.1601
rtibia 58.4659
rfoot -27.0652 -15.1415
rtoes -13.4029
lfemur -37.8982 -1.08418 -22.1001
ltibia 56.6101
lfoot -27.8221 7.64162
ltoes -15.9491
569
root 0.00391434 16.6541 -2.02653 10.8487 -0.865621 2.7176
lowerback 11.4433 1.66054 -2.68983
upperback 1.51272 1.82953 -0.665689
thorax -4.89389 0.944017 0.536452
lowerneck 4.17681 -3.84467 -6.56167
upperneck 1.06614 -5.39941 5.01031
head -0.0485829 -2.75154 2.78842
rclavicle -1.52567e-014 1.72943e-014
rhumerus -27.6638 -10.7678 -46.0462
rradius 67.942
rwrist -56.9262
rhand -16.6932 25.4208
rfingers 7.12502
rthumb 9.53134 -4.34359
lclavicle -1.52567e-014 1.72943e-014
lhumerus -29.3304 11.0369 44.0222
lradius 68.4942
lwrist 56.3827
lhand -2.67701 21.3722
lfingers 7.12502
lthumb 23.0239 50.017
rfemur -39.4207 -0.372163 15.1524
rtibia 58.4453
rfoot -27.057 -15.1587
rtoes -13.3307
lfemur -37.937 -1.08234 -22.111
ltibia 56.6177
lfoot -27.7735 7.71873
ltoes -16.3816
570
root 0.00381753 16.6594 -2.02499 10.8202 -0.889498 2.77223
lowerback 11.4393 1.66276 -2.75935
upperback 1.52124 1.82403 -0.667795
thorax -4.88466 0.942417 0.574438
lowerneck 4.08362 -3.83071 -6.60478
upperneck 1.17139 -5.37955 5.03688
head 0.00164944 -2.74154 2.80103
rclavicle 2.01269e-014 -7.95139e-015
rhumerus -27.5439 -10.6368 -46.0598
rradius 67.9368
rwrist -56.8713
rhand -16.4931 25.4902
rfingers 7.12502
rthumb 9.72448 -4.26533
lclavicle 2.01269e-014 -7.95139e-015
lhumerus -29.2599 10.9394 44.1083
lradius 68.5924
lwrist 56.2729
lhand -2.76166 21.252
lfingers 7.12502
lthumb 22.9427 49.9069
rfemur -39.3754 -0.345712 15.0895
rtibia 58.4186
rfoot -27.0619 -15.21
rtoes -13.3665
lfemur -37.9502 -1.07986 -22.1742
ltibia 56.6206
lfoot -27.7397 7.87591
ltoes -16.9405
571
root 0.00529739 16.6626 -2.02351 10.7644 -0.89161 2.8381
lowerback 11.4643 1.68282 -2.76665
upperback 1.52359 1.84668 -0.707942
thorax -4.89574 0.953419 0.532396
lowerneck 4.13132 -3.85902 -6.54824
upperneck 1.11844 -5.41639 4.99465
head -0.0238564 -2.75967 2.77858
rclavicle 3.97569e-016 -4.96962e-015
rhumerus -27.5561 -10.5789 -46.0708
rradius 67.9685
rwrist -56.7621
rhand -16.415 25.4675
rfingers 7.12502
rthumb 9.79975 -4.28445
lclavicle 3.97569e-016 -4.96962e-015
lhumerus -29.1438 10.7122 44.2125
lradius 68.7246
lwrist 56.2263
lhand -2.85367 21.2404
lfingers 7.12502
lthumb 22.8544 49.9062
rfemur -39.2968 -0.372139 15.0145
rtibia 58.4005
rfoot -27.0215 -15.2529
rtoes -13.4971
lfemur -37.8925 -1.07903 -22.2613
ltibia 56.615
lfoot -27.7459 7.99263
ltoes -17.3991
572
root 0.00571976 16.6625 -2.02261 10.714 -0.867406 2.86444
lowerback 11.4654 1.69473 -2.74634
upperback 1.5373 1.86451 -0.721483
thorax -4.88139 0.961485 0.504275
lowerneck 4.2156 -3.88227 -6.54703
upperneck 1.03462 -5.4504 4.97672
head -0.0634437 -2.77695 2.77612
rclavicle -7.30534e-015 1.49089e-014
rhumerus -27.5447 -10.5196 -46.0672
rradius 67.9849
rwrist -56.7273
rhand -16.3487 25.4819
rfingers 7.12502
rthumb 9.86375 -4.26702
lclavicle -7.30534e-015 1.49089e-014
lhumerus -29.0459 10.5171 44.3278
lradius 68.8437
lwrist 56.2538
lhand -2.85639 21.2506
lfingers 7.12502
lthumb 22.8518 49.9167
rfemur -39.2296 -0.377044 14.9843
rtibia 58.3982
rfoot -26.993 -15.289
rtoes -13.4715
lfemur -37.8187 -1.11021 -22.2847
ltibia 56.6096
lfoot -27.8326 7.93713
ltoes -17.3245
573
root 0.00527386 16.6628 -2.02238 10.6977 -0.822104 2.86302
lowerback 11.45 1.67799 -2.75398
upperback 1.54216 1.84404 -0.684817
thorax -4.86858 0.951738 0.550596
lowerneck 4.15439 -3.87077 -6.62868
upperneck 1.12409 -5.43696 4.98399
head -0.0228036 -2.77042 2.79045
rclavicle 8.94531e-016 1.19271e-015
rhumerus -27.4502 -10.3816 -46.0651
rradius 68.0008
rwrist -56.7464
rhand -16.1642 25.4989
rfingers 7.12502
rthumb 10.0418 -4.24152
lclavicle 8.94531e-016 1.19271e-015
lhumerus -29.009 10.4781 44.4467
lradius 68.9026
lwrist 56.2098
lhand -2.70115 21.1557
lfingers 7.12502
lthumb 23.0008 49.8033
rfemur -39.2046 -0.382455 14.9865
rtibia 58.4017
rfoot -26.98 -15.3322
rtoes -13.439
lfemur -37.8106 -1.13069 -22.2764
ltibia 56.6151
lfoot -27.794 7.91156
ltoes -17.1649
